<svg xmlns="http://www.w3.org/2000/svg" width="16" height="16" fill="none"><defs><clipPath id="a"><rect width="16" height="16" rx="0"/></clipPath></defs><g clip-path="url(#a)"><path fill="#414751" fill-rule="evenodd" d="M7.036 2.97a.704.704 0 1 1-1.386-.237l.226-1.324q.117-.687.686-1.09.57-.404 1.257-.287l6.765 1.155q.688.118 1.091.687t.286 1.257l-.365 2.14-1.024 5.995q-.132.772-.77 1.224-.62.44-1.365.328l-.057-.007a.705.705 0 1 1 .276-1.382q.181.021.333-.086.163-.116.197-.314l.328-1.921-1.243-1.556-1.03.432v6.127q0 .787-.558 1.342-.559.554-1.346.548l-1.636-.011h-.005l-4.997.017q-.7.002-1.194-.492-.496-.493-.496-1.193V5.867q0-.698.494-1.191.493-.494 1.19-.494h6.864q.697 0 1.19.494.494.493.494 1.19v.593l.635-.266q.37-.154.757-.055t.637.411l.561.702.378-2.217.366-2.14q.047-.274-.227-.32L7.583 1.418q-.274-.047-.321.227zm4.183 1.1a.212.212 0 0 1 .065-.38l.677-.182a.12.12 0 0 0 .067-.048l.396-.578a.212.212 0 0 1 .38.065l.183.677a.12.12 0 0 0 .047.067l.578.396c.15.103.11.334-.065.38l-.677.183a.12.12 0 0 0-.067.047l-.396.579a.212.212 0 0 1-.38-.065l-.182-.677a.12.12 0 0 0-.048-.067zM9.692 14.455q-.143.142-.345.14l-1.636-.011h-.016l-5 .016q-.116 0-.198-.08-.081-.082-.081-.198V5.867q0-.278.277-.278h6.864q.139 0 .208.07.07.069.07.208v8.244q0 .202-.143.344M4.054 8.879a.705.705 0 1 1 0-1.406h4.143a.705.705 0 1 1 0 1.406H6.825v3.086a.704.704 0 1 1-1.406 0V8.879z"/></g></svg>