<svg xmlns="http://www.w3.org/2000/svg" width="16" height="16" fill="none"><defs><clipPath id="a"><rect width="16" height="16" rx="0"/></clipPath></defs><g clip-path="url(#a)"><path fill="#414751" fill-rule="evenodd" d="M8.867 4.984a3.283 3.283 0 0 1-6.39 0H.907a.75.75 0 0 1 0-1.5h1.57a3.283 3.283 0 0 1 6.39 0h6.227a.75.75 0 0 1 0 1.5zm-1.414-.75q0-.737-.522-1.26-.521-.52-1.26-.52-.737 0-1.259.52-.521.523-.521 1.26 0 .738.521 1.26.522.522 1.26.522t1.26-.522q.521-.522.521-1.26m2.953 10.813a3.28 3.28 0 0 0 3.195-2.531h1.493a.75.75 0 0 0 0-1.5H13.6a3.283 3.283 0 0 0-6.39 0H.906a.75.75 0 0 0 0 1.5h6.305a3.28 3.28 0 0 0 3.195 2.53m1.781-3.281q0-.738-.521-1.26-.522-.522-1.26-.522t-1.26.522q-.521.522-.521 1.26 0 .737.522 1.26.521.52 1.26.52.737 0 1.259-.52.521-.523.521-1.26"/></g></svg>