<svg xmlns="http://www.w3.org/2000/svg" width="16" height="16" fill="none"><path fill="#414751" fill-rule="evenodd" d="M.742 14.218q.423.423 1.02.423h12.476q.597 0 1.02-.423.423-.422.423-1.02v-10.4q0-.596-.422-1.017-.422-.422-1.018-.422H1.762q-.597 0-1.02.423-.423.422-.423 1.02v10.396q0 .598.423 1.02m13.439-1.077H1.819V2.86h12.362zm-8.927-7.52-.336 1.3-.097.377H6.38l.25-.97q.016-.057.045-.172.087-.345.137-.517.069-.236.285-.241.307-.006.925-.005h.49l-.043.236-.01.053q-.012.075-.022.114l-.342 1.327-.814 3.184q-.08.314-.41.305-.253-.005-.77-.003h-.569l.325-1.266.188-.732H5.88l-.247-.002q-.759-.003-1.148-.01l-.438 1.717q-.073.287-.365.282-.265-.005-.802-.003H2.3l.427-1.65.54-2.089.305-1.193q.077-.295.385-.295.26.005.785.004l.317-.001h.258zm3.693.843.248-.98.097-.038.006-.003q.051-.024.1-.025h.009q.212.003.637.005 1.036.006 1.555.032.896.044 1.499.645.744.74.467 1.91-.372 1.577-2.044 2.313-.695.305-1.59.308H7.883l.053-.243.018-.083q.02-.098.033-.145l.7-2.743q.072-.291.365-.284.222.006.669.006l.303.001q.037 0 .108.007l.05.005.236.02-.552 2.148q1.085.036 1.61-.558.456-.508.466-1.19.017-.657-.558-.802-.082-.02-.174-.031-.343-.029-.687-.023h-.006q-.34-.004-1.033-.003h-.601zm-5.18-.752c.03-.116.08-.144.19-.144-.11 0-.16.028-.19.144m-.846 3.282c.284-1.093.57-2.186.846-3.282-.276 1.096-.562 2.189-.846 3.282m-.362 1.402.362-1.402-.31 1.202zM6.3 8.422l-.05.197-.409 1.59-.051.2c.171-.668.34-1.32.51-1.987M8.02 5.593h.048-.047m-.92.005c.304-.006.607-.005.92-.005-.313 0-.616 0-.92.005m-.097.096c.012-.04.063-.096.098-.096-.035 0-.086.057-.098.096m-.18.684c.06-.228.115-.457.18-.684-.065.227-.12.456-.18.684m-.289 1.12.29-1.12zm3.428-.158h.061q.042 0 .09.006l.053.005-.05.197.034.003.016-.2-.194-.05zm-.298 1.968-.05.196q.101.01.202.015zm-.316-2.795H9.14l.051-.2h-.05v.2l.193.049zM8.133 10.43v-.2h.043zm.195.043-.195-.043h.204zm-4.37-4.906a34.093 34.093 0 0 1 0 0"/></svg>