<svg xmlns="http://www.w3.org/2000/svg" width="16" height="16" fill="none"><defs><clipPath id="a"><rect width="16" height="16" rx="0"/></clipPath></defs><g clip-path="url(#a)"><path fill="#414751" fill-rule="evenodd" d="M1.751 2.604Q.733 3.622.733 5.063a.75.75 0 0 0 1.5 0q0-.82.579-1.399.58-.58 1.399-.58h1.364a.75.75 0 0 0 .53-1.28L4.74.442A.75.75 0 1 0 3.68 1.5l.106.107q-1.17.13-2.036.996m6.4-1.339Q6.92 2.282 6.532 3.861a.8.8 0 0 0-.021.179v.003a.75.75 0 0 0 .75.747h.029a.75.75 0 0 0 .7-.572q.268-1.096 1.116-1.796.85-.701 1.928-.701 1.292 0 2.211.966.934.98.934 2.376 0 1.166-.681 2.077-.662.885-1.686 1.162a.75.75 0 0 0-.554.724v.015a.75.75 0 0 0 .75.735h.007q.095-.001.19-.026 1.522-.412 2.494-1.712.98-1.31.98-2.975 0-1.995-1.348-3.41Q12.97.22 11.034.22 9.416.22 8.15 1.265m2.944 3.636q.466 0 .63-.329a.75.75 0 0 1 .671-.414h.028a.75.75 0 0 1 .722.75v.027a.75.75 0 0 1-.079.308q-.579 1.158-1.972 1.158T9.123 5.243a.75.75 0 0 1-.08-.335v-.01a.75.75 0 0 1 .75-.74h.003a.75.75 0 0 1 .668.414q.165.33.63.33m-.551 5.52q0 2.207-1.483 3.774-1.5 1.584-3.629 1.584t-3.629-1.584Q.321 12.628.321 10.42q0-2.207 1.482-3.774 1.5-1.585 3.63-1.585T9.06 6.646q1.483 1.567 1.483 3.774m-1.5 0q0-1.611-1.073-2.744Q6.916 6.56 5.432 6.56t-2.54 1.116Q1.822 8.81 1.822 10.42t1.072 2.744q1.055 1.115 2.54 1.115 1.483 0 2.538-1.115 1.073-1.133 1.073-2.744M4.632 9.025v.481a.75.75 0 1 1-1.5 0v-.48a.75.75 0 1 1 1.5 0m3.1 0v.481a.75.75 0 0 1-1.5 0v-.48a.75.75 0 1 1 1.5 0M5.395 11.37q.466 0 .631-.33a.75.75 0 0 1 .67-.414h.028a.75.75 0 0 1 .723.75v.028a.75.75 0 0 1-.08.308q-.579 1.158-1.972 1.158T3.423 11.71a.75.75 0 0 1-.079-.336v-.01a.75.75 0 0 1 .75-.74h.003a.75.75 0 0 1 .668.415q.164.329.63.329m5.816 2.059a.207.207 0 0 1-.004-.377l1.228-.58a.2.2 0 0 0 .1-.102l.557-1.24a.207.207 0 0 1 .377-.003l.58 1.228q.034.069.103.1l1.239.557c.16.073.163.301.003.376l-1.228.581a.2.2 0 0 0-.1.102l-.557 1.24a.207.207 0 0 1-.376.003l-.58-1.228a.2.2 0 0 0-.103-.1z"/></g></svg>