<svg xmlns="http://www.w3.org/2000/svg" width="16" height="16" fill="none"><defs><clipPath id="a"><rect width="16" height="16" rx="0"/></clipPath></defs><g clip-path="url(#a)"><path fill="#414751" fill-rule="evenodd" d="M4.836 1.255q-1.2 1.23-1.2 2.967t1.2 2.968q1.208 1.239 2.92 1.239t2.919-1.24q1.2-1.23 1.2-2.967 0-1.736-1.2-2.967Q9.467.016 7.755.016t-2.92 1.239M5.91 6.143q-.774-.794-.774-1.92 0-1.127.774-1.92.766-.787 1.845-.787 1.08 0 1.846.786.774.794.774 1.92 0 1.127-.774 1.92-.766.787-1.846.787-1.079 0-1.845-.786m8.912 3.105a.2.2 0 0 0 .098.098l.597.275a.2.2 0 0 1 0 .363l-.597.276a.2.2 0 0 0-.098.098l-.276.597a.2.2 0 0 1-.363 0l-.275-.597a.2.2 0 0 0-.098-.098l-.598-.276a.2.2 0 0 1 0-.363l.598-.275a.2.2 0 0 0 .098-.098l.275-.598a.2.2 0 0 1 .363 0zm-7.067.894q1.635 0 2.97.785a.752.752 0 1 0 .679-1.342q-1.645-.943-3.649-.943-2.826 0-4.938 1.874Q.723 12.375.372 15.14a.75.75 0 1 0 1.488.189v-.001q.28-2.205 1.952-3.689 1.686-1.496 3.943-1.496m6.057 2.216a.2.2 0 0 1-.098-.098L13 10.71a.2.2 0 0 0-.364 0l-.714 1.55a.2.2 0 0 1-.098.098l-1.55.714a.2.2 0 0 0 0 .363l1.55.715a.2.2 0 0 1 .098.098l.714 1.55a.2.2 0 0 0 .364 0l.714-1.55a.2.2 0 0 1 .098-.098l1.55-.715a.2.2 0 0 0 0-.363z"/></g></svg>