<svg xmlns="http://www.w3.org/2000/svg" width="16.086" height="16" fill="none"><path fill="#414751" fill-rule="evenodd" d="M4 2H2a2 2 0 0 0-2 2v8a2 2 0 0 0 2 2h3.5V3.5h8a1 1 0 0 1 1 1v.438H16V4a2 2 0 0 0-2-2zm0 1.5H2.5a1 1 0 0 0-1 1v1.094H4zM1.5 7.094v1.812H4V7.094zm0 3.312V11.5a1 1 0 0 0 1 1H4v-2.094zm4.715-5.008a.076.076 0 0 1 .024-.134l1-.286.641-.854a.076.076 0 0 1 .135.025L8.3 5.151l.852.64a.076.076 0 0 1-.024.134l-1.003.287-.639.851a.076.076 0 0 1-.134-.025l-.286-1zm1.878 3.15 2.545-2.545q.498-.498 1.202-.498t1.202.498l2.546 2.545q.498.498.498 1.202t-.498 1.202l-2.546 2.546q-.498.498-1.202.498-.324 0-.604-.106l-.74.74q-.468.468-1.13.468-.663 0-1.132-.469l-1.273-1.273q-.468-.468-.628-1.005.16-.789.628-1.257l.74-.74q-.106-.28-.106-.604 0-.704.498-1.202m6.434 1.344-2.545 2.545a.2.2 0 0 1-.283 0L9.153 9.892a.2.2 0 0 1 0-.283L11.7 7.063a.2.2 0 0 1 .283 0l2.545 2.546a.2.2 0 0 1 0 .283m-5.039 2.456-.245-.245-.585-.585-.636.636a.1.1 0 0 0 0 .142l1.273 1.273a.1.1 0 0 0 .141 0l.637-.637z"/></svg>