<svg xmlns="http://www.w3.org/2000/svg" width="16" height="16" fill="none"><defs><clipPath id="a"><rect width="16" height="16" rx="0"/></clipPath></defs><g clip-path="url(#a)"><path fill="#414751" fill-rule="evenodd" d="M14.77 9.557q-.547 2.344-2.43 3.855-1.908 1.532-4.355 1.538-.114 0-.339-.016-.219-.016-.328-.016h-.014q-2.234-.247-3.91-1.743-1.653-1.474-2.162-3.623-.56-.221-.9-.726-.358-.534-.33-1.176t.431-1.142q.382-.474.959-.645.582-1.811 2.012-3.075.203-.178.473-.16t.448.222q.179.203.16.473-.017.27-.22.448Q2.97 4.914 2.536 6.583v.024l-.004.014q-.012.052-.037.098-.032.062-.074.117l-.003.004-.06.066-.103.075q-.042.032-.093.048-.081.036-.17.044h-.052q-.275-.012-.479.175-.203.186-.215.461t.175.479.46.215q.101.003.194.045.051.018.098.047l.003.001.002.002q.052.036.095.081.033.03.064.064.072.054.082.152.02.048.034.098l.004.016v.032q.343 2.037 1.92 3.373 1.582 1.34 3.654 1.34t3.654-1.34q1.568-1.329 1.916-3.351-.003-.024.003-.05l.006-.022q.02-.072.045-.121l.021-.038.008.004v-.047l.031-.035q.034-.038.072-.073.044-.051.103-.087l.007-.004.088-.039q.064-.033.136-.046h.003l.002-.001q.249-.035.413-.225t.164-.443q.003-.268-.18-.463-.184-.193-.45-.205h-.055l-.01-.001q-.081-.014-.158-.045l-.004-.001-.072-.036-.004-.003q-.064-.038-.115-.094l-.056-.056-.005-.006q-.044-.058-.073-.125l-.042-.091v-.038q-.493-1.89-2.05-3.074Q9.866 2.31 7.9 2.348h-.053q-.551.039-.927.445-.377.408-.372.964.006.568.355.81.32.222.998.228.268 0 .458.19t.19.458-.19.459-.459.19q-1.187-.003-1.891-.583-.755-.622-.757-1.751-.001-1.082.743-1.867.745-.785 1.826-.84h.067q2.313-.039 4.188 1.317 1.848 1.336 2.544 3.5.593.184.975.682.402.526.405 1.189-.004.617-.359 1.123-.335.478-.872.695m-4.125-1.124a.985.985 0 1 0 0-1.969.985.985 0 0 0 0 1.97m-5.29 0a.985.985 0 1 0 0-1.969.985.985 0 0 0 0 1.97m.784 2.117a.5.5 0 0 1-.105 0 .655.655 0 1 1 0-1.31.5.5 0 0 1 .111 0 1.966 1.966 0 0 1 3.71 0 .4.4 0 0 1 .111 0 .655.655 0 1 1 0 1.31 1 1 0 0 1-.118 0 1.966 1.966 0 0 1-3.71 0m2.517-.655a.655.655 0 1 0-1.311 0 .655.655 0 0 0 1.31 0"/></g></svg>