<svg xmlns="http://www.w3.org/2000/svg" width="16" height="16" fill="none"><defs><clipPath id="a"><rect width="16" height="16" rx="0"/></clipPath></defs><g clip-path="url(#a)"><path fill="#414751" fill-rule="evenodd" d="M7.25 1.25H2q-.725 0-1.237.513Q.25 2.275.25 3v10q0 .725.513 1.237.512.513 1.237.513h5.25v.5a.75.75 0 0 0 1.5 0v-.5H14q.725 0 1.237-.513.513-.512.513-1.237V3q0-.725-.513-1.237Q14.725 1.25 14 1.25H8.75v-.5a.75.75 0 0 0-1.5 0zm0 1.5v1.257q.185.07.37.177l1.13.652V2.75h2.175L8.808 4.869l1.345.776 2.895-2.895H14q.25 0 .25.25v1.065L11.444 6.87q.154.38.154.849 0 1.238-1.073 1.858L7.62 11.254q-.185.107-.37.177v1.819H2q-.25 0-.25-.25V3q0-.25.25-.25zM5.902 9.396V6.042c0-.497.538-.808.968-.56L9.775 7.16c.43.248.43.87 0 1.118l-1.025.591-1.5.866-.38.22a.645.645 0 0 1-.968-.56M8.75 13.25h1.001l4.499-4.5V6.187l-5.5 5.5zm5.5-2.378-2.378 2.378H14q.25 0 .25-.25z"/></g></svg>