<svg xmlns="http://www.w3.org/2000/svg" width="16" height="16" fill="none"><defs><clipPath id="a"><rect width="16" height="16" rx="0"/></clipPath></defs><g clip-path="url(#a)"><path fill="#414751" fill-rule="evenodd" d="M8.75 2.75v2.175l2.175-2.175zm-1.5 0v10.5H2q-.25 0-.25-.25V3q0-.25.25-.25zm0-1.5H2q-.725 0-1.237.513Q.25 2.275.25 3v10q0 .725.513 1.237.512.513 1.237.513h5.25v.5a.75.75 0 0 0 1.5 0v-.5H14q.725 0 1.237-.513.513-.512.513-1.237V3q0-.725-.513-1.237Q14.725 1.25 14 1.25H8.75v-.5a.75.75 0 0 0-1.5 0zm1.5 12h1.001l4.499-4.5V6.187l-5.5 5.5zm5.5-9.185V3q0-.25-.25-.25h-.953L8.75 7.047v2.518zm0 6.807-2.378 2.378H14q.25 0 .25-.25z"/></g></svg>