<svg xmlns="http://www.w3.org/2000/svg" width="16" height="16" fill="none"><defs><clipPath id="a"><rect width="16" height="16" rx="0"/></clipPath></defs><g clip-path="url(#a)"><path fill="#414751" fill-rule="evenodd" d="M1.762 15.129q-.405.038-.693-.25-.287-.287-.25-.692l.234-2.496q.023-.243.195-.415l9.935-9.935q.709-.71 1.712-.71t1.712.71q.71.71.71 1.713t-.71 1.712L4.673 14.7q-.173.173-.415.195zm1.823-8.057-2.76-2.76Q.482 3.97.482 3.488q0-.483.341-.824L2.5.988q.342-.341.824-.341.483 0 .824.34l2.76 2.761a.665.665 0 1 1-.94.94L3.324 2.046 1.881 3.488 4.525 6.13a.665.665 0 0 1-.94.94m.314 6.521-1.703.16.16-1.704 7.263-7.264 1.544 1.544zm8.317-8.317 1.45-1.45q.32-.32.32-.772 0-.453-.32-.772-.319-.32-.771-.32t-.772.32l-1.45 1.45zm.085 3.865 2.484 2.484q.341.341.341.824t-.34.824l-.839.837-.838.839q-.341.341-.824.341t-.824-.341l-2.484-2.484a.665.665 0 1 1 .94-.94l2.368 2.367.722-.722.721-.721-2.367-2.368a.665.665 0 1 1 .94-.94"/></g></svg>